<svg width="21" height="20" viewBox="0 0 21 20" fill="none" xmlns="http://www.w3.org/2000/svg">
<path d="M2.25 2H3.65625C4.34375 2 4.96875 2.40625 5.25 3H18.0938C18.9062 3 19.5 3.78125 19.2812 4.59375L18 9.34375C17.75 10.3438 16.8438 11 15.8438 11H6.8125L7 11.9062C7.0625 12.25 7.375 12.5 7.71875 12.5H16.75C17.1562 12.5 17.5 12.8438 17.5 13.25C17.5 13.6875 17.1562 14 16.75 14H7.71875C6.65625 14 5.71875 13.25 5.53125 12.1875L3.90625 3.71875C3.875 3.59375 3.78125 3.5 3.65625 3.5H2.25C1.8125 3.5 1.5 3.1875 1.5 2.75C1.5 2.34375 1.8125 2 2.25 2ZM5.59375 4.5L6.53125 9.5H15.8438C16.1875 9.5 16.4688 9.28125 16.5625 8.96875L17.75 4.5H5.59375ZM7 18C6.4375 18 5.96875 17.7188 5.6875 17.25C5.40625 16.8125 5.40625 16.2188 5.6875 15.75C5.96875 15.3125 6.4375 15 7 15C7.53125 15 8 15.3125 8.28125 15.75C8.5625 16.2188 8.5625 16.8125 8.28125 17.25C8 17.7188 7.53125 18 7 18ZM17.5 16.5C17.5 17.0625 17.1875 17.5312 16.75 17.8125C16.2812 18.0938 15.6875 18.0938 15.25 17.8125C14.7812 17.5312 14.5 17.0625 14.5 16.5C14.5 15.9688 14.7812 15.5 15.25 15.2188C15.6875 14.9375 16.2812 14.9375 16.75 15.2188C17.1875 15.5 17.5 15.9688 17.5 16.5Z" fill="#0958B5"/>
</svg>
