<svg width="20" height="20" viewBox="0 0 20 20" fill="none" xmlns="http://www.w3.org/2000/svg">
<g style="mix-blend-mode:luminosity">
<path d="M1.75 2H3.15625C3.84375 2 4.46875 2.40625 4.75 3H17.5938C18.4062 3 19 3.78125 18.7812 4.59375L17.5 9.34375C17.25 10.3438 16.3438 11 15.3438 11H6.3125L6.5 11.9062C6.5625 12.25 6.875 12.5 7.21875 12.5H16.25C16.6562 12.5 17 12.8438 17 13.25C17 13.6875 16.6562 14 16.25 14H7.21875C6.15625 14 5.21875 13.25 5.03125 12.1875L3.40625 3.71875C3.375 3.59375 3.28125 3.5 3.15625 3.5H1.75C1.3125 3.5 1 3.1875 1 2.75C1 2.34375 1.3125 2 1.75 2ZM5.09375 4.5L6.03125 9.5H15.3438C15.6875 9.5 15.9688 9.28125 16.0625 8.96875L17.25 4.5H5.09375ZM6.5 18C5.9375 18 5.46875 17.7188 5.1875 17.25C4.90625 16.8125 4.90625 16.2188 5.1875 15.75C5.46875 15.3125 5.9375 15 6.5 15C7.03125 15 7.5 15.3125 7.78125 15.75C8.0625 16.2188 8.0625 16.8125 7.78125 17.25C7.5 17.7188 7.03125 18 6.5 18ZM17 16.5C17 17.0625 16.6875 17.5312 16.25 17.8125C15.7812 18.0938 15.1875 18.0938 14.75 17.8125C14.2812 17.5312 14 17.0625 14 16.5C14 15.9688 14.2812 15.5 14.75 15.2188C15.1875 14.9375 15.7812 14.9375 16.25 15.2188C16.6875 15.5 17 15.9688 17 16.5Z" fill="#E4E4E7"/>
</g>
</svg>
