<svg width="20" height="20" viewBox="0 0 20 20" fill="none" xmlns="http://www.w3.org/2000/svg">
<g style="mix-blend-mode:luminosity">
<path d="M1 2.75C1 2.34375 1.3125 2 1.75 2H3.15625C3.84375 2 4.46875 2.40625 4.75 3H17.5938C18.4062 3 19 3.78125 18.7812 4.59375L17.5 9.34375C17.25 10.3438 16.3438 11 15.3438 11H6.3125L6.5 11.9062C6.5625 12.25 6.875 12.5 7.21875 12.5H16.25C16.6562 12.5 17 12.8438 17 13.25C17 13.6875 16.6562 14 16.25 14H7.21875C6.15625 14 5.21875 13.25 5.03125 12.1875L3.40625 3.71875C3.375 3.59375 3.28125 3.5 3.15625 3.5H1.75C1.3125 3.5 1 3.1875 1 2.75ZM5 16.5C5 15.9688 5.28125 15.5 5.75 15.2188C6.1875 14.9375 6.78125 14.9375 7.25 15.2188C7.6875 15.5 8 15.9688 8 16.5C8 17.0625 7.6875 17.5312 7.25 17.8125C6.78125 18.0938 6.1875 18.0938 5.75 17.8125C5.28125 17.5312 5 17.0625 5 16.5ZM15.5 15C16.0312 15 16.5 15.3125 16.7812 15.75C17.0625 16.2188 17.0625 16.8125 16.7812 17.25C16.5 17.7188 16.0312 18 15.5 18C14.9375 18 14.4688 17.7188 14.1875 17.25C13.9062 16.8125 13.9062 16.2188 14.1875 15.75C14.4688 15.3125 14.9375 15 15.5 15Z" fill="#E4E4E7"/>
</g>
</svg>
