<svg width="21" height="20" viewBox="0 0 21 20" fill="none" xmlns="http://www.w3.org/2000/svg">
<path d="M1.5 2.75C1.5 2.34375 1.8125 2 2.25 2H3.65625C4.5 2 5.21875 2.625 5.375 3.4375L6.53125 9.5H15.8438C16.1875 9.5 16.4688 9.28125 16.5625 8.96875L18 3.5625C18.125 3.15625 18.5312 2.9375 18.9375 3.03125C19.3438 3.15625 19.5625 3.5625 19.4688 3.96875L18 9.34375C17.75 10.3438 16.8438 11 15.8438 11H6.8125L7 11.9062C7.0625 12.25 7.375 12.5 7.71875 12.5H16.75C17.1562 12.5 17.5 12.8438 17.5 13.25C17.5 13.6875 17.1562 14 16.75 14H7.71875C6.65625 14 5.71875 13.25 5.53125 12.1875L3.90625 3.71875C3.875 3.59375 3.78125 3.5 3.65625 3.5H2.25C1.8125 3.5 1.5 3.1875 1.5 2.75ZM5.5 16.5C5.5 15.9688 5.78125 15.5 6.25 15.2188C6.6875 14.9375 7.28125 14.9375 7.75 15.2188C8.1875 15.5 8.5 15.9688 8.5 16.5C8.5 17.0625 8.1875 17.5312 7.75 17.8125C7.28125 18.0938 6.6875 18.0938 6.25 17.8125C5.78125 17.5312 5.5 17.0625 5.5 16.5ZM16 15C16.5312 15 17 15.3125 17.2812 15.75C17.5625 16.2188 17.5625 16.8125 17.2812 17.25C17 17.7188 16.5312 18 16 18C15.4375 18 14.9688 17.7188 14.6875 17.25C14.4062 16.8125 14.4062 16.2188 14.6875 15.75C14.9688 15.3125 15.4375 15 16 15ZM12.25 2.75V5.96875L12.9688 5.25C13.25 4.9375 13.7188 4.9375 14 5.25C14.3125 5.53125 14.3125 6 14 6.28125L12 8.28125C11.7188 8.59375 11.25 8.59375 10.9688 8.28125L8.96875 6.28125C8.65625 6 8.65625 5.53125 8.96875 5.25C9.25 4.9375 9.71875 4.9375 10 5.25L10.7188 5.96875V2.75C10.7188 2.34375 11.0625 2 11.4688 2C11.9062 2 12.2188 2.34375 12.2188 2.75H12.25Z" fill="#0958B5"/>
</svg>
