<svg width="24" height="24" viewBox="0 0 24 24" fill="none" xmlns="http://www.w3.org/2000/svg">
<path d="M20.75 12.5C20.75 9.375 19.0703 6.52344 16.375 4.96094C13.6406 3.35938 10.3203 3.35938 7.625 4.96094C4.89062 6.52344 3.25 9.375 3.25 12.5C3.25 15.6641 4.89062 18.5156 7.625 20.0781C10.3203 21.6797 13.6406 21.6797 16.375 20.0781C19.0703 18.5156 20.75 15.6641 20.75 12.5ZM2 12.5C2 8.94531 3.875 5.66406 7 3.86719C10.0859 2.07031 13.875 2.07031 17 3.86719C20.0859 5.66406 22 8.94531 22 12.5C22 16.0938 20.0859 19.375 17 21.1719C13.875 22.9688 10.0859 22.9688 7 21.1719C3.875 19.375 2 16.0938 2 12.5ZM8.5625 9.14062C8.83594 8.20312 9.69531 7.5 10.6719 7.5H12.9375C14.3047 7.5 15.4375 8.63281 15.4375 10.0391C15.4375 10.9766 14.8906 11.8359 14.0703 12.2656L12.625 13.0078V13.75C12.625 14.1016 12.3125 14.375 12 14.375C11.6484 14.375 11.375 14.1016 11.375 13.75V12.6172C11.375 12.3828 11.4922 12.1484 11.6875 12.0703L13.4844 11.1328C13.9141 10.9375 14.1875 10.5078 14.1875 10.0391C14.1875 9.33594 13.6016 8.75 12.9375 8.75H10.6719C10.2812 8.75 9.89062 9.0625 9.77344 9.45312V9.49219C9.69531 9.80469 9.34375 10.0391 9.03125 9.92188C8.67969 9.84375 8.48438 9.49219 8.5625 9.17969V9.14062ZM11.0625 16.25C11.0625 15.7422 11.4531 15.3125 12 15.3125C12.5078 15.3125 12.9375 15.7422 12.9375 16.25C12.9375 16.7969 12.5078 17.1875 12 17.1875C11.4531 17.1875 11.0625 16.7969 11.0625 16.25Z" fill="white"/>
</svg>
