<svg width="185" height="20" viewBox="0 0 185 20" fill="none" xmlns="http://www.w3.org/2000/svg">
<path d="M173.754 2.8025V10.4505C173.754 13.0414 175.075 14.3961 177.324 14.3961C179.618 14.3961 180.94 13.0414 180.94 10.4505V2.8025H184.491V10.2203C184.491 12.5416 183.853 14.3172 182.59 15.5864C181.333 16.8621 179.554 17.4869 177.305 17.4869C175.056 17.4869 173.277 16.8621 172.02 15.5864C170.763 14.3106 170.119 12.5351 170.119 10.2203V2.8025H173.754ZM154.426 2.50658C156.958 2.50658 158.95 3.17733 160.4 4.53858C161.869 5.89982 162.598 7.7214 162.598 10.023C162.598 12.3246 161.869 14.1462 160.419 15.4877C158.988 16.8292 156.978 17.5 154.426 17.5C151.854 17.5 149.843 16.8292 148.367 15.4877C146.891 14.1265 146.17 12.3049 146.17 10.023C146.17 7.74112 146.917 5.91955 148.387 4.55831C149.863 3.19706 151.873 2.50658 154.426 2.50658ZM53.8727 2.5C56.0381 2.5 57.7911 2.99978 59.1317 3.98619C60.4915 4.9726 61.2778 6.30754 61.484 8.02389H57.6042C57.1724 6.41276 55.7288 5.42635 53.8082 5.42635C52.5063 5.42635 51.4752 5.84722 50.6953 6.68238C49.9091 7.49781 49.5224 8.62889 49.5224 10.0296C49.5224 12.8573 51.2109 14.5737 53.7889 14.5737C55.7481 14.5737 57.1724 13.6135 57.6429 11.9564H61.5227C61.0265 15.3891 58.2423 17.4803 53.8727 17.4803C51.3334 17.4803 49.3355 16.8095 47.8725 15.468C46.4031 14.1396 45.6812 12.3181 45.6812 10.0362C45.6812 7.73455 46.4031 5.91298 47.866 4.55173C49.3355 3.19706 51.3334 2.5 53.8727 2.5ZM116.323 2.8025V17.1909H112.798V2.8025H116.323ZM96.9373 2.8025C96.9373 8.91824 101.049 9.60215 101.326 16.4676V2.8025H104.574V17.1909H98.1102C98.1102 14.2975 97.1371 12.5351 96.1123 10.8056L95.9834 10.582C94.862 8.70781 93.7213 6.82047 93.7213 3.52587V17.1844H90.4731V2.8025H96.9373ZM78.2214 2.8025L83.9831 16.7109V17.1909H80.5351L79.5168 14.6657H71.6927L70.7131 17.1909H67.2844V16.7503L73.0655 2.8025H78.2214ZM39.0559 2.8025V5.49211H30.3553V8.43161H37.7669V11.1015H30.3553V14.5013H39.159V17.1909H27.0298V2.8025H39.0559ZM6.4642 2.8025C6.4642 5.45265 7.26337 7.08352 8.19143 8.63547L8.26877 8.76699C8.29455 8.81302 8.32032 8.85248 8.3461 8.89851L8.42989 9.03003L8.55234 9.22731C8.59101 9.29307 8.63612 9.35884 8.67479 9.4246L8.75858 9.55612C8.9777 9.91122 9.19683 10.2729 9.40306 10.6543C9.57063 10.3452 9.75109 10.0493 9.9251 9.75997L10.0089 9.62845C10.0218 9.60873 10.0347 9.58242 10.0476 9.56269L10.1313 9.43117C10.1571 9.38514 10.1829 9.33911 10.2151 9.29965L10.2989 9.16813C11.3559 7.4452 12.3484 5.75515 12.3484 2.8025H18.8061V17.1909H15.5579V3.52587C15.5579 6.75471 14.4236 8.63547 13.2893 10.4702L13.154 10.6938C12.0648 12.4562 11.0207 14.2383 11.0207 17.1844H7.7854C7.7854 14.2317 6.74133 12.4562 5.65215 10.6938L5.51681 10.4702C4.38251 8.62889 3.24821 6.75471 3.24821 3.52587V17.1844H0V2.8025H6.4642ZM138.648 2.8025V9.39829C135.877 9.39829 134.163 10.3452 132.5 11.3711L132.281 11.5026L132.062 11.6342C130.257 12.7521 128.42 13.8766 125.256 13.8766H138.648V17.1909H124.547V10.5951C130.547 10.5951 131.211 6.39961 137.94 6.11684H124.547V2.8025H138.648ZM154.426 5.24222C153.033 5.24222 151.957 5.68281 151.145 6.5377C150.359 7.39259 149.966 8.56971 149.966 10.0099C149.966 11.4566 150.359 12.6074 151.145 13.4623C151.957 14.2975 153.033 14.7183 154.426 14.7183C157.184 14.7183 158.802 12.9165 158.802 10.0099C158.802 7.08352 157.165 5.24222 154.426 5.24222ZM75.7916 4.99233H75.3598L75.0312 6.16287L72.7046 12.0813H78.4663L76.0946 6.16287L75.7916 4.99233Z" fill="#EDFAFF"/>
</svg>
