<svg width="20" height="20" viewBox="0 0 20 20" fill="none" xmlns="http://www.w3.org/2000/svg">
<path d="M12.2188 4.6875L14 4L14.6562 2.25C14.6875 2.09375 14.8438 2 15 2C15.125 2 15.2812 2.09375 15.3125 2.25L16 4L17.75 4.6875C17.9062 4.71875 18 4.875 18 5C18 5.15625 17.9062 5.3125 17.75 5.34375L16 6L15.3125 7.78125C15.2812 7.90625 15.125 8 15 8C14.8438 8 14.6875 7.90625 14.6562 7.78125L14 6L12.2188 5.34375C12.0938 5.3125 12 5.15625 12 5C12 4.875 12.0938 4.71875 12.2188 4.6875ZM8.40625 4.3125L10.0312 7.875L13.5938 9.5C13.7812 9.59375 13.9062 9.78125 13.9062 9.96875C13.9062 10.1562 13.7812 10.3438 13.5938 10.4062L10.0312 12.0625L8.40625 15.625C8.3125 15.8125 8.125 15.9375 7.9375 15.9375C7.75 15.9375 7.5625 15.8125 7.5 15.625L5.84375 12.0625L2.28125 10.4375C2.09375 10.3438 2 10.1562 2 9.96875C2 9.78125 2.09375 9.59375 2.28125 9.5L5.84375 7.875L7.5 4.3125C7.5625 4.125 7.75 4 7.9375 4C8.125 4 8.3125 4.125 8.40625 4.3125ZM14 14L14.6562 12.25C14.6875 12.0938 14.8438 12 15 12C15.125 12 15.2812 12.0938 15.3125 12.25L16 14L17.75 14.6875C17.9062 14.7188 18 14.875 18 15C18 15.1562 17.9062 15.3125 17.75 15.3438L16 16L15.3125 17.7812C15.2812 17.9062 15.125 18 15 18C14.8438 18 14.6875 17.9062 14.6562 17.7812L14 16L12.2188 15.3438C12.0938 15.3125 12 15.1562 12 15C12 14.875 12.0938 14.7188 12.2188 14.6875L14 14Z" fill="#3F3F46"/>
</svg>
