<svg width="20" height="20" viewBox="0 0 20 20" fill="none" xmlns="http://www.w3.org/2000/svg">
<g style="mix-blend-mode:luminosity" clip-path="url(#clip0_104_1493)">
<path d="M15 8.5C15 9.9375 14.5312 11.2812 13.75 12.3438L17.6875 16.3125C18.0938 16.6875 18.0938 17.3438 17.6875 17.7188C17.3125 18.125 16.6562 18.125 16.2812 17.7188L12.3125 13.75C11.25 14.5625 9.90625 15 8.5 15C4.90625 15 2 12.0938 2 8.5C2 4.9375 4.90625 2 8.5 2C12.0625 2 15 4.9375 15 8.5ZM8.5 13C10.0938 13 11.5625 12.1562 12.375 10.75C13.1875 9.375 13.1875 7.65625 12.375 6.25C11.5625 4.875 10.0938 4 8.5 4C6.875 4 5.40625 4.875 4.59375 6.25C3.78125 7.65625 3.78125 9.375 4.59375 10.75C5.40625 12.1562 6.875 13 8.5 13Z" fill="#D4D4D8"/>
</g>
<defs>
<clipPath id="clip0_104_1493">
<rect width="20" height="20" fill="white"/>
</clipPath>
</defs>
</svg>
