<svg width="20" height="20" viewBox="0 0 20 20" fill="none" xmlns="http://www.w3.org/2000/svg">
<g style="mix-blend-mode:luminosity">
<path d="M0 7.8125C0 7.625 0.03125 7.4375 0.125 7.25L2.5625 2.78125C2.8125 2.3125 3.3125 2 3.875 2H16.0938C16.6562 2 17.1562 2.3125 17.4062 2.78125L19.8438 7.25C19.9375 7.40625 20 7.625 20 7.8125C20 8.46875 19.4375 9 18.7812 9H18V17.25C18 17.6875 17.6562 18 17.25 18C16.8125 18 16.5 17.6875 16.5 17.25V9H12V16.75C12 17.4688 11.4375 18 10.75 18H3.25C2.53125 18 2 17.4688 2 16.75V9H1.1875C0.53125 9 0 8.46875 0 7.8125ZM3.5 9V12H10.5V9H3.5ZM16.0938 3.5H3.875L1.6875 7.5H18.2812L16.0938 3.5ZM3.5 16.5H10.5V13.5H3.5V16.5Z" fill="#E4E4E7"/>
</g>
</svg>
